<svg width="70" height="70" fill="none" xmlns="http://www.w3.org/2000/svg"><path fill-rule="evenodd" clip-rule="evenodd" d="M34.393 60c14.025 0 25.394-11.193 25.394-25s-11.37-25-25.394-25S9 21.193 9 35s11.369 25 25.393 25Z" fill="#fff"/><path clip-rule="evenodd" d="M34.393 55.366c11.425 0 20.687-9.118 20.687-20.366 0-11.247-9.262-20.366-20.687-20.366-11.424 0-20.686 9.119-20.686 20.366 0 11.248 9.262 20.366 20.686 20.366Z" stroke="#000" stroke-width=".7"/><mask id="a" fill="#fff"><path fill-rule="evenodd" clip-rule="evenodd" d="M28.408 29.822h4.141v12.651h-4.14V29.822Zm.7.7v11.251h2.741V30.522h-2.74Zm6.98-.7h4.14v12.651h-4.14V29.822Zm.7.7v11.251h2.74V30.522h-2.74Zm-2.332-9.329.134.055 13.13 5.43.212.088.004.23.062 3.17.007.357h-3.413v11.251h3.344v3.87h-26.96v-3.87h3.344V30.523h-3.344v-3.755l.216-.09 13.13-5.43.134-.055Zm-12.78 6.043v2.587h3.344v12.651h-3.344v2.47h25.56v-2.47h-3.344V29.823h3.4l-.051-2.585-12.785-5.287-12.78 5.285Z"/></mask><path d="M28.408 29.822v-2a2 2 0 0 0-2 2h2Zm4.141 0h2a2 2 0 0 0-2-2v2Zm0 12.651v2a2 2 0 0 0 2-2h-2Zm-4.14 0h-2a2 2 0 0 0 2 2v-2Zm.7-.7h-2a2 2 0 0 0 2 2v-2Zm0-11.251v-2a2 2 0 0 0-2 2h2Zm2.74 11.251v2a2 2 0 0 0 2-2h-2Zm0-11.251h2a2 2 0 0 0-2-2v2Zm4.239-.7v-2a2 2 0 0 0-2 2h2Zm4.14 0h2a2 2 0 0 0-2-2v2Zm0 12.651v2a2 2 0 0 0 2-2h-2Zm-4.14 0h-2a2 2 0 0 0 2 2v-2Zm.7-.7h-2a2 2 0 0 0 2 2v-2Zm0-11.251v-2a2 2 0 0 0-2 2h2Zm2.74 11.251v2a2 2 0 0 0 2-2h-2Zm0-11.251h2a2 2 0 0 0-2-2v2Zm-4.938-9.274.764-1.848-.764 1.848Zm-.134-.055.764-1.848a2 2 0 0 0-1.529 0l.765 1.848Zm13.264 5.486.764-1.848-.764 1.848Zm.212.087 2-.039a2 2 0 0 0-1.236-1.809l-.764 1.848Zm.004.23 2-.04-2 .04Zm.062 3.17 2-.039-2 .04Zm.007.357v2a2 2 0 0 0 2-2.04l-2 .04Zm-3.413 0v-2a2 2 0 0 0-2 2h2Zm0 11.251h-2a2 2 0 0 0 2 2v-2Zm3.344 0h2a2 2 0 0 0-2-2v2Zm0 3.87v2a2 2 0 0 0 2-2h-2Zm-26.96 0h-2a2 2 0 0 0 2 2v-2Zm0-3.87v-2a2 2 0 0 0-2 2h2Zm3.344 0v2a2 2 0 0 0 2-2h-2Zm0-11.251h2a2 2 0 0 0-2-2v2Zm-3.344 0h-2a2 2 0 0 0 2 2v-2Zm0-3.755-.765-1.848a2 2 0 0 0-1.235 1.848h2Zm.216-.09.764 1.849-.764-1.848Zm13.13-5.43-.764-1.848.764 1.848Zm-12.646 8.575h-2a2 2 0 0 0 2 2v-2Zm0-2.587-.765-1.848a2 2 0 0 0-1.235 1.848h2Zm3.344 2.587h2a2 2 0 0 0-2-2v2Zm0 12.651v2a2 2 0 0 0 2-2h-2Zm-3.344 0v-2a2 2 0 0 0-2 2h2Zm0 2.47h-2a2 2 0 0 0 2 2v-2Zm25.56 0v2a2 2 0 0 0 2-2h-2Zm0-2.47h2a2 2 0 0 0-2-2v2Zm-3.344 0h-2a2 2 0 0 0 2 2v-2Zm0-12.651v-2a2 2 0 0 0-2 2h2Zm3.4 0v2a2 2 0 0 0 1.999-2.04l-2 .04Zm-.051-2.585 2-.039a2 2 0 0 0-1.236-1.81l-.764 1.849Zm-12.785-5.287.764-1.849a2 2 0 0 0-1.529 0l.765 1.849Zm-5.698 5.871h-.35v4h.35v-4Zm3.441 0h-3.44v4h3.44v-4Zm.35 0h-.35v4h.35v-4Zm2 2.35v-.35h-4v.35h4Zm0 11.951V30.172h-4v11.951h4Zm0 .35v-.35h-4v.35h4Zm-2.35 2h.35v-4h-.35v4Zm-3.44 0h3.44v-4h-3.44v4Zm-.35 0h.35v-4h-.35v4Zm-2-2.35v.35h4v-.35h-4Zm0-11.951v11.951h4V30.172h-4Zm0-.35v.35h4v-.35h-4Zm4.7 11.951V30.522h-4v11.251h4Zm.74-2h-2.74v4h2.74v-4Zm-2-9.251v11.251h4V30.522h-4Zm-.74 2h2.74v-4h-2.74v4Zm7.329-4.7h-.35v4h.35v-4Zm3.44 0h-3.44v4h3.44v-4Zm.35 0h-.35v4h.35v-4Zm2 2.35v-.35h-4v.35h4Zm0 11.951V30.172h-4v11.951h4Zm0 .35v-.35h-4v.35h4Zm-2.35 2h.35v-4h-.35v4Zm-3.44 0h3.44v-4h-3.44v4Zm-.35 0h.35v-4h-.35v4Zm-2-2.35v.35h4v-.35h-4Zm0-11.951v11.951h4V30.172h-4Zm0-.35v.35h4v-.35h-4Zm4.7 11.951V30.522h-4v11.251h4Zm.74-2h-2.74v4h2.74v-4Zm-2-9.251v11.251h4V30.522h-4Zm-.74 2h2.74v-4h-2.74v4ZM35.354 19.4l-.134-.055-1.529 3.696.134.055 1.529-3.696Zm13.13 5.43-13.13-5.43-1.529 3.697 13.13 5.43 1.53-3.696Zm.212.088-.212-.087-1.529 3.696.212.087 1.529-3.696Zm1.24 2.038-.005-.229-4 .078.005.23 4-.079Zm.062 3.171-.062-3.17-4 .077.062 3.171 4-.078Zm.007.357-.007-.357-4 .078.007.357 4-.078Zm-2.357 2.039h.357v-4h-.357v4Zm-3.056 0h3.056v-4h-3.056v4Zm2 9.251V30.523h-4v11.251h4Zm.994-2h-2.994v4h2.994v-4Zm.35 0h-.35v4h.35v-4Zm2 2.35v-.35h-4v.35h4Zm0 3.17v-3.17h-4v3.17h4Zm0 .35v-.35h-4v.35h4Zm-2.35 2h.35v-4h-.35v4Zm-26.26 0h26.26v-4h-26.26v4Zm-.35 0h.35v-4h-.35v4Zm-2-2.35v.35h4v-.35h-4Zm0-3.17v3.17h4v-3.17h-4Zm0-.35v.35h4v-.35h-4Zm2.35-2h-.35v4h.35v-4Zm2.994 0h-2.994v4h2.994v-4Zm-2-9.251v11.251h4V30.523h-4Zm-.994 2h2.994v-4h-2.994v4Zm-.35 0h.35v-4h-.35v4Zm-2-2.35v.35h4v-.35h-4Zm0-3.17v3.17h4v-3.17h-4Zm0-.235v.234h4v-.234h-4Zm1.451-1.938-.216.09 1.529 3.696.216-.09-1.529-3.695Zm13.13-5.43-13.13 5.43 1.53 3.697 13.13-5.43-1.53-3.697Zm.134-.055-.133.055 1.528 3.697.134-.056-1.529-3.696ZM23.676 29.823v-2.587h-4v2.587h4Zm.994-2h-2.994v4h2.994v-4Zm.35 0h-.35v4h.35v-4Zm2 2.35v-.35h-4v.35h4Zm0 11.951V30.173h-4v11.951h4Zm0 .35v-.35h-4v.35h4Zm-2.35 2h.35v-4h-.35v4Zm-2.994 0h2.994v-4h-2.994v4Zm2 .47v-2.47h-4v2.47h4Zm23.56-2h-25.56v4h25.56v-4Zm-2-.47v2.47h4v-2.47h-4Zm-.994 2h2.994v-4h-2.994v4Zm-.35 0h.35v-4h-.35v4Zm-2-2.35v.35h4v-.35h-4Zm0-11.951v11.951h4V30.173h-4Zm0-.35v.35h4v-.35h-4Zm2.35-2h-.35v4h.35v-4Zm3.05 0h-3.05v4h3.05v-4Zm-2.051-.546.05 2.585 4-.078-.05-2.585-4 .078ZM33.691 23.8l12.785 5.287 1.529-3.696-12.785-5.288-1.529 3.697ZM22.44 29.084 35.22 23.8l-1.529-3.697-12.78 5.286 1.529 3.696Z" fill="#000" mask="url(#a)"/></svg>